<?xml version="1.0" encoding="utf-8"?>
<!-- Generator: Adobe Illustrator 19.1.0, SVG Export Plug-In . SVG Version: 6.00 Build 0)  -->
<svg version="1.1" id="Layer_1" xmlns="http://www.w3.org/2000/svg" xmlns:xlink="http://www.w3.org/1999/xlink" x="0px" y="0px"
	 viewBox="0 0 186.5 141.3" style="enable-background:new 0 0 186.5 141.3;" xml:space="preserve">
<style type="text/css">
	.st0{fill:#2F2F28;}
	.st1{fill:#010202;}
	.st2{fill:none;}
	.st3{fill:#F0EFF0;}
	.st4{fill:#AF1C1D;}
	.st5{fill:#30A2AB;}
</style>
<g>
	<g>
	</g>
</g>
<g>
	<circle class="st2" cx="66.4" cy="91.8" r="11.9"/>
	<circle class="st2" cx="66.4" cy="44.1" r="11.9"/>
	<g>
		<circle class="st2" cx="66.4" cy="91.8" r="11.9"/>
		<circle class="st2" cx="66.4" cy="44.1" r="11.9"/>
		<circle class="st2" cx="120.1" cy="70.6" r="11.9"/>
		<path class="st0" d="M143.9,28.9c0-3.3-2.7-6-6-6s-6,2.7-6,6c0,0.3,0,21.1,0,21.1c-3.5-2-7.6-3.2-11.9-3.2
			c-13.2,0-23.9,10.7-23.9,23.9s10.7,23.9,23.9,23.9c9.2,0,17.3-5.3,21.2-13c0,0,0,0,0,0c1.7-3.3,2.6-7,2.6-10.9
			c0-0.8-0.1-1.6-0.1-2.3c0.1-0.3,0.1-0.5,0.1-0.8C143.9,67.5,143.9,29.1,143.9,28.9z M120.1,82.6c-6.6,0-11.9-5.3-11.9-11.9
			c0-6.6,5.3-11.9,11.9-11.9c6.6,0,11.9,5.3,11.9,11.9C132,77.2,126.7,82.6,120.1,82.6z"/>
		<path class="st0" d="M90.3,26.2c0-3.3-2.7-6-6-6c-2.4,0-4.5,1.4-5.4,3.5c0,0,0,0,0,0c-3.6-2.2-7.9-3.5-12.5-3.5
			c-13.2,0-23.9,10.7-23.9,23.9c0,7.1,3.1,13.5,8.1,17.9c1.2,1,2.5,1.9,3.8,2.7v6.4c-1.4,0.8-2.7,1.7-3.8,2.7
			c-5,4.3-8.1,10.8-8.1,17.9c0,13.2,10.7,23.9,23.9,23.9c13.2,0,23.9-10.7,23.9-23.9c0-7.1-3.1-13.5-8.1-17.9c-4.2-3.7-9.7-6-15.8-6
			c6,0,11.6-2.3,15.8-6c5-4.3,8.1-10.8,8.1-17.9c0-4.6-1.3-8.8-3.5-12.5c0,0,0,0,0,0C88.8,30.7,90.3,28.6,90.3,26.2z M78.3,91.8
			c0,6.6-5.3,11.9-11.9,11.9c-6.6,0-11.9-5.3-11.9-11.9c0-6.6,5.3-11.9,11.9-11.9C73,79.9,78.3,85.2,78.3,91.8z M66.4,56
			c-6.6,0-11.9-5.3-11.9-11.9c0-6.6,5.3-11.9,11.9-11.9c6.6,0,11.9,5.3,11.9,11.9C78.3,50.6,73,56,66.4,56z"/>
	</g>
</g>
</svg>
